<?xml version="1.0" standalone="no"?>
<!DOCTYPE svg PUBLIC "-//W3C//DTD SVG 20010904//EN"
 "http://www.w3.org/TR/2001/REC-SVG-20010904/DTD/svg10.dtd">
<svg version="1.0" xmlns="http://www.w3.org/2000/svg"
 width="293.000000pt" height="293.000000pt" viewBox="0 0 293.000000 293.000000"
 preserveAspectRatio="xMidYMid meet">
<metadata>
Created by potrace 1.11, written by Peter Selinger 2001-2013
</metadata>
<g transform="translate(0.000000,293.000000) scale(0.100000,-0.100000)"
fill="#000000" stroke="none">
<path d="M1 2133 c2 -884 3 -900 69 -1107 169 -526 627 -922 1160 -1001 25 -4
59 -9 75 -12 42 -7 282 -6 325 1 19 4 46 8 60 11 14 3 40 7 59 10 63 11 186
47 261 78 154 63 267 131 398 241 335 283 524 701 516 1143 -12 654 -460 1219
-1095 1384 -46 12 -100 23 -119 26 -19 2 -57 8 -85 13 -27 4 -405 9 -838 10
l-788 1 2 -798z m1659 262 c0 -2 -7 -2 -15 1 -10 4 -15 0 -15 -12 0 -16 2 -17
10 -4 5 8 10 11 10 6 0 -6 5 -5 12 2 7 7 17 8 30 1 10 -5 18 -6 18 -2 0 4 5 1
11 -7 9 -13 10 -13 6 2 -3 9 0 19 8 22 10 3 12 0 8 -12 -5 -14 -3 -15 8 -4 16
15 33 16 23 0 -4 -6 -3 -8 4 -4 5 3 13 0 16 -6 3 -7 4 1 1 17 -2 17 -2 24 2
16 5 -11 7 -11 15 0 6 10 7 6 2 -11 -6 -22 -5 -23 10 -11 9 7 16 10 16 6 0 -4
7 -2 15 5 19 16 44 -2 40 -28 -1 -9 7 -23 19 -30 15 -9 16 -12 3 -8 -14 4 -16
1 -13 -19 3 -14 1 -23 -5 -20 -5 4 -9 1 -9 -4 0 -6 8 -11 18 -11 14 0 15 -2 2
-9 -8 -6 -18 -7 -24 -4 -5 3 -6 1 -2 -6 4 -6 11 -9 16 -6 4 3 14 -3 21 -13 13
-15 12 -16 -3 -3 -13 9 -18 10 -18 2 0 -7 -5 -9 -12 -5 -7 4 -8 3 -4 -5 4 -6
13 -8 19 -4 7 3 3 -4 -8 -17 l-20 -23 25 13 25 13 -25 -29 c-14 -16 -17 -22
-7 -15 16 13 25 2 10 -13 -20 -20 -9 -42 20 -37 12 2 8 -6 -10 -20 -11 -10
-14 -10 -9 -1 4 7 2 12 -4 12 -7 0 -10 -6 -7 -12 2 -7 0 -21 -5 -31 -7 -13 -4
-19 14 -27 20 -8 10 -15 -15 -11 -5 1 -6 -3 -2 -9 3 -6 10 -8 15 -5 4 3 14 -3
21 -13 13 -15 12 -16 -3 -3 -13 9 -18 10 -18 2 0 -7 -5 -9 -12 -5 -7 4 -8 3
-4 -5 4 -6 13 -8 19 -4 7 3 3 -4 -8 -17 l-20 -23 25 13 25 13 -25 -29 c-14
-16 -17 -22 -7 -15 16 13 25 2 10 -13 -20 -20 -9 -42 20 -37 12 2 8 -6 -10
-20 -11 -10 -14 -10 -9 -1 4 7 2 12 -4 12 -7 0 -10 -6 -7 -12 2 -7 0 -21 -5
-31 -7 -13 -4 -19 14 -27 20 -8 10 -15 -15 -11 -5 1 -6 -3 -2 -9 3 -6 10 -8
15 -5 4 3 14 -3 21 -13 13 -15 12 -16 -3 -3 -13 9 -18 10 -18 2 0 -7 -5 -9
-12 -5 -7 4 -8 3 -4 -5 4 -6 13 -8 19 -4 7 3 3 -4 -8 -17 l-20 -23 25 13 25
13 -25 -29 c-14 -16 -17 -22 -7 -15 10 8 17 9 17 3 0 -6 -4 -13 -9 -17 -6 -3
-8 -15 -6 -26 3 -16 0 -19 -13 -15 -16 6 -16 5 1 -8 9 -7 17 -16 17 -20 0 -3
-8 -6 -17 -7 -12 0 -13 -2 -5 -6 7 -3 23 3 35 13 12 10 16 12 10 4 -16 -18
-17 -34 -1 -24 7 4 8 3 4 -4 -4 -6 -14 -8 -24 -5 -14 5 -15 4 -6 -8 6 -8 10
-21 9 -29 -4 -21 30 -23 47 -2 7 9 8 13 2 9 -7 -4 -14 0 -17 8 -5 11 -1 12 20
4 24 -9 25 -8 12 8 -12 15 -12 16 5 10 16 -6 17 -5 6 8 -12 14 -10 15 12 11
19 -3 25 0 24 12 0 10 5 16 12 14 8 -1 11 2 7 8 -5 8 -13 6 -24 -4 -15 -14
-18 -14 -18 -1 0 8 4 12 8 10 4 -3 16 6 26 21 10 14 25 26 33 27 8 1 16 7 17
12 1 6 -5 9 -13 7 -8 -2 -14 1 -14 6 0 5 12 9 28 8 16 0 26 4 25 12 -2 7 4 12
13 12 8 0 12 5 9 10 -4 6 -10 8 -14 6 -4 -3 -8 1 -8 9 0 8 5 13 11 12 6 -1 10
7 8 18 -2 16 -1 17 7 5 6 -9 6 -19 1 -25 -7 -8 -5 -12 5 -12 7 0 13 3 13 6 -3
14 15 40 23 35 5 -3 6 3 2 12 -6 16 -7 15 -20 -2 -7 -10 -13 -13 -13 -7 0 7 5
15 10 18 6 4 7 12 3 18 -3 7 2 4 13 -5 24 -21 52 -5 33 19 -7 7 -8 13 -3 13 5
0 3 4 -5 9 -9 6 -10 11 -2 15 6 4 11 1 11 -6 1 -7 7 -2 16 12 12 21 14 22 12
5 -2 -11 -10 -25 -18 -32 -10 -8 -11 -12 -3 -13 13 0 26 17 30 40 1 8 7 16 12
18 6 2 11 8 11 13 0 4 -8 6 -17 3 -14 -5 -15 -4 -4 4 8 6 20 8 28 5 8 -3 11 0
8 9 -4 9 0 15 9 15 8 0 12 -6 8 -15 -3 -10 -1 -13 6 -8 7 4 12 15 12 24 0 15
2 15 10 2 8 -13 10 -12 11 5 1 18 2 18 6 2 3 -11 11 -16 19 -13 7 3 18 -3 23
-12 6 -9 11 -12 11 -5 0 7 -9 18 -20 25 -11 7 -20 16 -20 21 0 4 10 1 23 -8
13 -8 27 -12 32 -8 4 5 5 2 1 -4 -4 -7 -3 -13 2 -13 5 0 13 10 19 22 6 15 12
18 17 10 4 -7 2 -12 -3 -12 -6 0 -11 -4 -11 -9 0 -11 49 -11 56 0 3 5 -3 6
-13 3 -15 -5 -15 -4 -3 5 11 7 21 6 39 -5 19 -13 25 -14 32 -3 5 8 9 18 9 24
0 5 7 -1 16 -13 8 -12 21 -22 27 -22 7 0 6 4 -3 11 -13 9 -13 10 1 6 9 -3 23
0 30 6 11 10 11 9 0 -5 -9 -12 -10 -18 -2 -18 6 0 10 -3 10 -7 -3 -20 2 -34
11 -28 6 3 10 1 10 -4 0 -6 -5 -11 -11 -11 -5 0 -7 -4 -4 -10 3 -6 -1 -7 -9
-4 -9 3 -13 11 -9 17 3 5 1 7 -5 4 -5 -4 -8 -16 -5 -27 3 -12 0 -20 -6 -20 -7
0 -9 6 -5 13 5 9 3 9 -7 -1 -8 -7 -14 -27 -15 -44 0 -18 -6 -34 -13 -36 -9 -3
-11 3 -7 19 l6 24 -11 -22 c-7 -13 -19 -23 -28 -23 -14 0 -14 -2 -1 -9 8 -6
18 -7 24 -4 5 3 6 1 2 -6 -4 -6 -12 -9 -17 -6 -5 4 -9 1 -9 -4 0 -6 -5 -11
-11 -11 -5 0 -7 5 -4 10 3 6 1 10 -4 10 -14 0 -14 -17 0 -26 8 -5 6 -10 -5
-16 -9 -5 -14 -13 -11 -17 2 -5 -7 -7 -20 -5 -14 1 -23 -2 -19 -7 3 -5 9 -7
14 -4 5 3 12 1 15 -5 4 -6 1 -9 -7 -8 -7 2 -12 -2 -11 -8 1 -6 -4 -11 -12 -11
-8 0 -11 7 -7 16 5 14 4 14 -11 -1 -19 -18 -23 -33 -7 -23 12 7 8 -31 -5 -42
-4 -5 -6 -3 -2 2 8 16 -30 38 -39 23 -4 -6 -3 -8 4 -4 6 3 13 2 17 -4 3 -5 0
-10 -7 -10 -8 -1 -6 -6 6 -15 24 -18 13 -20 -17 -3 -21 11 -21 10 -7 -7 14
-17 13 -18 -4 -12 -16 6 -17 5 -6 -8 11 -13 10 -14 -4 -9 -14 5 -16 2 -12 -20
3 -15 1 -24 -3 -22 -4 3 -13 1 -21 -4 -11 -7 -12 -14 -2 -35 7 -15 8 -24 2
-20 -5 3 -10 -1 -10 -10 0 -11 5 -15 16 -11 8 3 12 2 9 -4 -6 -9 8 -14 28 -11
4 1 0 -10 -9 -23 -15 -24 -15 -25 5 -21 12 2 19 0 16 -5 -3 -4 1 -11 7 -13 7
-3 -2 -4 -21 -2 -18 2 -30 1 -26 -3 6 -7 11 -8 54 -10 16 -2 21 -6 17 -17 -7
-18 3 -47 14 -40 4 3 10 -5 13 -16 3 -12 10 -18 15 -15 6 3 8 -2 5 -14 -4 -15
0 -20 13 -20 14 0 15 -3 6 -12 -7 -7 -12 -16 -12 -20 0 -12 34 -9 50 5 12 10
12 9 2 -5 -9 -11 -10 -18 -2 -23 5 -3 10 -11 10 -18 0 -6 -6 -3 -13 7 -12 16
-13 16 -13 -3 0 -11 2 -18 5 -16 6 7 31 -15 31 -27 0 -6 -8 -4 -17 3 -17 13
-17 13 0 -7 9 -11 23 -21 31 -21 12 0 12 4 -1 24 -9 13 -13 27 -9 30 4 4 9 -3
13 -15 3 -12 9 -20 13 -17 10 6 8 -15 -3 -32 -8 -12 18 -19 47 -14 5 1 4 -5
-4 -13 -14 -18 -25 -22 -15 -6 3 5 2 10 -4 10 -5 0 -9 -8 -8 -18 1 -14 7 -17
24 -14 13 2 23 -1 23 -7 0 -6 -8 -8 -17 -4 -16 6 -16 5 0 -12 16 -15 20 -16
28 -4 5 8 9 10 9 5 0 -5 -7 -17 -16 -27 -15 -16 -14 -17 6 -12 26 7 44 -15 28
-34 -6 -8 -8 -16 -4 -20 3 -4 13 2 22 13 8 10 12 13 8 5 -3 -7 0 -17 7 -22 9
-6 10 -9 2 -9 -6 0 -10 -9 -8 -20 2 -11 -1 -22 -6 -26 -5 -3 -8 0 -7 7 3 13
-51 19 -59 6 -2 -4 -12 -2 -21 5 -9 7 -13 8 -10 3 4 -6 2 -17 -4 -25 -8 -12
-9 -12 -4 3 3 9 1 17 -5 17 -6 0 -7 5 -4 10 3 6 1 10 -4 10 -6 0 -11 -7 -11
-16 0 -14 -3 -14 -15 -4 -8 7 -15 9 -15 5 0 -4 -6 -2 -14 4 -11 9 -16 9 -22 0
-4 -7 -3 -9 4 -5 6 3 13 2 17 -4 4 -6 10 -8 14 -6 4 3 8 -5 8 -16 l2 -21 -14
21 c-16 22 -42 23 -56 1 -5 -8 -9 -9 -9 -4 0 6 -9 21 -20 35 l-20 25 10 -27
c6 -18 6 -28 0 -28 -6 0 -10 6 -10 14 0 18 -27 29 -36 14 -4 -6 -3 -8 3 -5 6
4 13 0 17 -8 8 -22 -17 -14 -31 10 -11 18 -12 18 -13 2 0 -10 -5 -15 -10 -12
-6 4 -7 11 -4 17 4 5 -4 5 -16 -2 -20 -11 -22 -10 -17 4 3 8 2 18 -4 21 -5 4
-7 11 -4 16 4 5 1 9 -4 9 -14 0 -14 -13 1 -28 9 -9 9 -12 0 -12 -7 0 -12 5
-12 11 0 8 -5 8 -15 -1 -9 -8 -15 -8 -15 -2 0 6 6 12 13 15 8 3 1 15 -20 35
-26 25 -29 32 -15 37 9 3 13 3 9 -1 -8 -9 21 -44 37 -44 6 0 0 7 -12 16 -12 8
-20 19 -17 24 6 9 -8 25 -48 55 -33 24 -34 35 -4 29 l22 -5 -22 10 c-16 7 -21
16 -17 28 5 15 4 16 -5 3 -6 -8 -11 -11 -11 -6 0 5 -8 2 -17 -5 -17 -13 -17
-13 0 7 17 20 14 34 -7 34 -6 0 -4 -5 4 -10 8 -5 11 -10 5 -10 -5 0 -17 5 -25
10 -10 6 -11 10 -3 10 7 0 12 11 11 24 -1 14 -7 22 -12 19 -5 -4 -7 0 -4 9 4
9 0 15 -8 15 -12 0 -12 -4 1 -23 13 -20 12 -23 -1 -28 -8 -3 -13 -2 -9 3 8 14
-6 42 -18 34 -6 -4 -7 -1 -2 7 4 7 2 16 -6 22 -10 7 -8 8 8 3 12 -3 24 -1 28
5 4 6 3 10 -2 9 -4 -1 -17 -1 -28 1 l-20 1 20 9 c19 8 19 9 -2 9 -15 1 -23 -5
-23 -16 0 -24 -8 -12 -14 20 -3 16 -1 25 5 22 5 -4 6 -12 3 -18 -4 -7 -3 -8 1
-4 11 9 16 37 7 36 -21 -3 -42 2 -42 11 0 5 6 7 14 4 8 -3 17 -1 21 5 4 7 0 8
-11 4 -10 -4 -15 -2 -11 4 3 5 0 10 -8 10 -8 0 -12 -4 -9 -9 3 -4 0 -8 -6 -8
-6 0 -9 -4 -5 -9 5 -9 -4 -9 -45 1 -10 2 -14 -3 -12 -16 2 -10 -1 -15 -7 -11
-6 3 -8 0 -5 -9 3 -9 -3 -17 -17 -21 -22 -7 -22 -8 -3 -19 19 -10 19 -12 3
-28 -10 -9 -20 -14 -23 -12 -4 2 -2 -1 4 -8 6 -8 5 -16 -3 -26 -10 -13 -9 -14
10 -4 16 9 24 9 29 0 4 -6 3 -8 -3 -5 -6 4 -19 -3 -29 -16 -16 -18 -16 -19 -1
-8 16 13 25 2 10 -13 -14 -13 -9 -31 10 -42 17 -10 18 -12 3 -17 -10 -4 -15
-3 -11 3 3 6 2 10 -4 10 -5 0 -9 -8 -9 -17 0 -10 -1 -25 -3 -33 -2 -8 1 -14 8
-15 6 0 15 -4 20 -9 4 -5 3 -6 -3 -3 -6 4 -19 -2 -29 -13 -10 -12 -13 -20 -7
-20 7 0 12 5 12 10 0 6 4 10 10 10 5 0 6 -8 3 -17 -6 -16 -5 -17 13 -3 18 14
18 14 5 -2 -7 -10 -18 -15 -25 -11 -6 4 -4 -2 4 -12 14 -17 13 -18 -3 -12 -10
4 -16 3 -12 -2 3 -5 2 -11 -2 -14 -5 -2 -3 -2 4 -1 7 2 10 -3 6 -12 -3 -7 -13
-15 -22 -15 -9 -1 -23 -2 -31 -3 -8 -1 -21 3 -27 8 -7 4 -13 5 -13 1 0 -4 -7
-2 -15 5 -8 7 -16 10 -16 6 -1 -3 -3 -10 -4 -16 -1 -5 -3 -16 -4 -22 -1 -9 -4
-9 -11 2 -6 10 -30 14 -89 15 -85 1 -122 18 -116 53 1 9 -4 24 -11 33 -12 13
-12 16 1 16 8 0 11 -5 8 -10 -3 -6 -1 -7 6 -3 9 6 9 11 0 22 -6 8 -8 14 -4 14
5 0 0 10 -11 22 -10 12 -13 18 -6 14 20 -12 28 25 8 39 -9 7 -13 16 -8 19 6 3
12 -1 16 -9 3 -8 11 -15 18 -15 9 0 8 3 -2 10 -8 5 -11 10 -6 10 4 0 1 12 -9
26 -9 15 -12 23 -6 20 7 -5 10 11 8 49 -2 43 1 55 13 55 13 0 13 2 0 9 -8 6
-18 7 -24 4 -5 -3 -6 -1 -2 5 4 6 14 9 24 6 9 -2 7 1 -5 7 -28 14 -29 25 -5
38 10 6 12 11 4 11 -7 0 -10 5 -7 10 4 6 12 7 18 4 9 -5 9 -3 0 6 -10 11 -9
16 5 27 9 8 11 12 5 8 -23 -11 -36 6 -16 21 17 13 17 14 -4 20 -13 3 -20 10
-17 15 3 5 15 4 27 -2 13 -6 8 1 -10 16 -18 15 -33 32 -33 38 0 7 4 6 10 -3 8
-12 10 -12 16 3 3 9 11 14 18 10 7 -4 7 -1 -1 7 -10 11 -9 16 5 27 9 8 11 12
5 8 -23 -11 -36 6 -16 21 17 13 17 14 -4 20 -13 3 -20 10 -17 15 3 5 15 4 27
-2 13 -6 8 1 -10 16 -18 15 -33 32 -33 38 0 7 4 6 10 -3 8 -12 10 -12 16 3 3
9 11 14 18 10 7 -4 7 -1 -1 7 -10 11 -9 16 5 27 9 8 11 12 5 8 -23 -11 -36 6
-16 21 17 13 17 14 -4 20 -13 3 -20 10 -17 15 3 5 15 4 27 -2 13 -6 8 1 -10
16 -18 15 -33 32 -33 38 0 7 4 6 10 -3 8 -12 10 -12 16 3 3 9 11 14 18 10 7
-4 7 -1 -1 7 -10 11 -9 16 5 27 9 8 11 12 5 8 -23 -11 -36 6 -16 21 17 13 17
14 -4 20 -13 3 -20 10 -17 15 3 5 15 4 27 -2 13 -6 8 1 -10 16 -18 15 -33 34
-32 43 0 14 2 13 9 -3 8 -19 11 -18 14 4 0 5 5 13 10 18 5 5 6 2 1 -6 -6 -10
-4 -12 4 -7 9 6 9 11 0 22 -6 8 -8 14 -4 14 4 0 2 7 -5 15 -10 12 -9 15 6 15
16 0 16 2 4 9 -8 6 -18 7 -24 4 -5 -3 -6 -1 -2 5 4 6 14 9 24 6 9 -2 7 1 -5 7
-28 14 -29 25 -5 38 10 6 12 11 4 11 -7 0 -10 5 -7 10 4 6 10 8 14 6 3 -3 7 4
7 14 0 10 -3 17 -6 15 -8 -5 -25 18 -28 38 -2 10 6 21 20 27 19 7 20 9 4 9
-16 1 -16 3 5 21 13 11 18 19 10 18 -7 -2 -15 4 -16 12 -16 87 -16 92 1 76 8
-9 18 -16 21 -16 4 0 3 3 0 7 -4 3 -1 13 6 22 10 14 10 14 -4 4 -12 -10 -16
-10 -16 0 0 7 11 13 24 13 13 0 23 -5 23 -10 0 -6 4 -4 9 4 6 8 7 18 4 23 -3
5 4 4 16 -2 11 -7 21 -14 21 -16z m47 10 c0 -8 -4 -12 -9 -9 -5 3 -6 10 -3 15
9 13 12 11 12 -6z m-1087 -76 c-7 -11 -9 -23 -6 -27 3 -3 6 0 6 7 0 6 10 11
23 10 43 -4 78 1 72 10 -3 5 0 13 6 17 8 5 9 3 4 -6 -6 -10 -4 -12 10 -6 18 6
18 6 -1 -15 -18 -22 -18 -22 15 1 19 13 31 18 26 10 -6 -10 -3 -12 13 -8 12 4
20 2 16 -3 -8 -13 10 -11 24 3 9 9 13 7 18 -5 8 -22 23 -22 19 1 -1 9 0 12 2
5 2 -7 14 -15 26 -19 11 -4 27 -13 34 -20 8 -7 21 -10 30 -7 12 5 14 3 8 -8
-7 -11 -5 -11 10 1 17 14 18 13 12 -2 -3 -9 1 -22 9 -28 13 -12 17 -9 12 8 -2
4 -6 6 -10 5 -13 -5 -9 4 8 17 12 11 15 11 12 -1 -2 -9 5 -14 19 -13 15 1 20
-3 16 -13 -4 -11 -8 -11 -13 -3 -5 8 -9 7 -13 -3 -4 -11 1 -14 23 -13 20 1 26
-1 20 -8 -5 -7 -3 -18 5 -29 11 -15 13 -15 18 -2 4 8 13 12 22 9 14 -6 13 -8
-2 -21 -17 -14 -17 -14 0 -9 9 3 17 1 17 -5 0 -6 6 -7 13 -3 9 6 9 4 -1 -8
-10 -12 -10 -18 -1 -23 8 -6 7 -10 -2 -17 -10 -7 -8 -8 7 -3 13 3 28 0 37 -9
8 -8 18 -12 21 -8 4 3 4 -1 0 -11 -4 -11 -1 -17 7 -17 7 0 10 -3 6 -6 -3 -3 6
-17 21 -31 15 -14 19 -20 10 -13 -23 16 -23 9 0 -32 10 -18 18 -40 17 -48 0
-8 6 -18 15 -23 9 -4 3 -5 -15 -3 -16 3 -24 3 -17 0 6 -3 9 -11 5 -17 -4 -6 0
-8 10 -4 9 3 19 1 23 -5 4 -7 3 -8 -4 -4 -7 4 -12 1 -12 -9 0 -10 -5 -13 -12
-9 -8 5 -7 0 2 -12 19 -24 32 -34 40 -29 4 2 7 -2 7 -10 0 -8 -3 -14 -6 -13
-3 0 -15 0 -26 -1 -16 -1 -17 -3 -6 -10 8 -5 20 -7 27 -4 6 2 15 0 19 -6 4 -7
0 -8 -11 -4 -14 5 -16 2 -12 -15 6 -23 -13 -47 -27 -34 -5 4 -5 1 -1 -6 4 -7
12 -10 17 -7 5 4 9 -1 9 -10 0 -10 5 -13 13 -9 6 4 9 4 5 -1 -4 -4 -3 -14 3
-22 8 -9 8 -17 1 -26 -9 -10 -7 -20 5 -38 14 -20 14 -22 2 -12 -13 11 -19 9
-35 -10 -10 -12 -12 -16 -4 -9 21 18 35 15 19 -5 -12 -15 -12 -16 5 -10 16 6
17 5 6 -7 -6 -9 -15 -14 -18 -13 -4 1 -7 -3 -7 -8 0 -5 4 -9 8 -7 5 1 7 -3 5
-10 -3 -7 -10 -13 -16 -13 -5 0 -13 -3 -16 -8 -3 -4 -3 -5 1 -2 3 3 13 -1 21
-8 13 -9 14 -9 8 0 -5 9 -2 11 9 6 13 -4 14 -8 4 -14 -7 -4 -14 -17 -16 -29
-2 -15 1 -19 9 -14 14 9 -10 -26 -27 -38 -6 -5 -4 -8 5 -8 13 0 13 -1 0 -10
-9 -6 -17 -5 -23 3 -6 8 -7 8 -4 -3 2 -9 13 -14 25 -12 11 2 23 -2 27 -7 4 -7
0 -8 -11 -4 -12 4 -15 3 -10 -5 5 -8 2 -10 -9 -6 -11 5 -14 2 -9 -10 4 -10 13
-15 21 -12 8 4 11 1 7 -5 -3 -6 -18 -8 -33 -5 -22 5 -23 5 -8 -5 12 -7 15 -15
9 -22 -13 -16 -11 -47 2 -47 6 0 4 -5 -4 -10 -8 -5 -19 -10 -25 -10 -5 0 -3 5
5 10 8 5 10 10 4 10 -6 0 -13 -3 -17 -6 -8 -9 4 -35 13 -29 5 3 12 0 16 -6 4
-7 3 -9 -4 -5 -6 3 -16 -2 -22 -11 -10 -16 -11 -16 -6 -1 3 10 2 20 -3 22 -12
8 -10 -27 3 -43 9 -12 8 -13 -6 -8 -11 4 -17 2 -15 -6 1 -7 -3 -11 -8 -10 -6
1 -10 -14 -9 -33 1 -19 -2 -34 -7 -34 -5 0 -7 12 -4 28 l6 27 -16 -27 c-9 -16
-20 -28 -26 -28 -6 0 -5 -9 2 -22 11 -20 10 -21 -3 -10 -13 10 -15 9 -13 -13
2 -14 -1 -23 -6 -19 -5 3 -7 10 -4 15 4 5 2 9 -3 9 -13 0 -23 -28 -11 -32 5
-2 0 -9 -12 -16 -12 -8 -18 -9 -14 -3 3 6 0 11 -8 11 -8 0 -18 -7 -21 -16 -3
-8 -2 -12 3 -9 5 3 13 1 16 -5 4 -6 1 -9 -7 -8 -7 2 -12 -2 -11 -8 3 -17 -31
-13 -44 5 -6 9 -15 13 -19 8 -4 -4 -2 -7 4 -7 7 0 12 -5 12 -11 0 -6 -7 -8
-16 -5 -14 5 -15 4 -4 -9 12 -14 10 -14 -16 -5 -27 9 -28 9 -9 -5 19 -15 19
-15 -5 -12 -16 3 -30 -2 -37 -14 -7 -9 -21 -16 -30 -14 -10 1 -26 -2 -37 -7
-14 -8 -17 -7 -11 3 6 9 3 10 -11 5 -10 -5 -28 -9 -39 -10 -11 -1 -26 -6 -34
-10 -10 -6 -12 -5 -7 2 7 12 -11 17 -43 13 -8 -2 -10 3 -6 11 6 10 5 11 -6 0
-17 -16 -32 -16 -24 1 4 6 0 4 -8 -5 -17 -21 -28 -23 -23 -5 1 6 1 9 -1 5 -3
-5 -11 -8 -19 -8 -9 0 -13 4 -10 8 2 4 -6 8 -19 8 -13 0 -21 -4 -19 -8 3 -4
-4 -8 -16 -8 -13 0 -19 -4 -14 -12 5 -7 3 -8 -5 -4 -9 6 -9 12 3 25 9 10 16
22 16 27 0 5 -5 2 -10 -6 -5 -8 -15 -15 -22 -15 -7 0 -12 -9 -10 -20 3 -20 3
-20 -11 -1 -9 12 -19 16 -27 11 -9 -5 -11 -4 -6 3 9 15 1 15 -24 2 -15 -8 -17
-6 -13 11 5 16 8 18 15 7 8 -10 9 -10 6 2 -3 8 -16 15 -31 15 -17 1 -24 -2
-20 -9 4 -6 0 -5 -9 1 -8 7 -17 11 -20 8 -3 -3 -11 2 -19 12 -8 9 -9 14 -2 10
6 -4 15 -3 18 3 4 6 3 9 -2 8 -4 -1 -19 2 -32 6 -16 6 -20 11 -11 16 8 5 7 9
-5 13 -9 4 -13 3 -10 -3 3 -6 1 -10 -4 -10 -6 0 -11 6 -11 13 0 8 -4 7 -11 -3
-8 -12 -9 -10 -4 7 5 19 3 22 -12 16 -16 -6 -16 -5 -4 10 14 18 14 18 -28 21
-8 1 -15 14 -17 31 -2 22 -1 26 6 15 5 -8 10 -10 10 -4 0 19 -13 24 -29 12 -9
-7 -13 -8 -9 -4 4 5 3 15 -3 23 -6 7 -8 13 -3 13 5 0 2 5 -6 11 -13 9 -12 10
2 5 10 -3 20 0 24 7 4 7 4 9 -1 5 -12 -11 -47 11 -39 24 5 8 1 9 -10 5 -11 -4
-15 -3 -11 4 4 6 13 8 21 5 13 -5 19 6 15 27 -1 4 8 3 20 -4 18 -9 21 -9 17 3
-4 9 1 14 13 14 11 0 19 -4 19 -8 0 -4 -4 -8 -10 -8 -5 0 -10 -5 -10 -11 0 -8
5 -8 15 1 12 10 18 10 32 -1 10 -7 15 -9 11 -5 -4 5 0 15 10 23 15 13 15 13
-5 4 -16 -8 -22 -7 -26 3 -4 10 0 12 15 8 15 -4 19 -2 14 7 -6 9 -3 9 12 0 15
-9 18 -17 11 -25 -7 -8 -6 -14 1 -19 6 -4 9 -3 8 2 -2 4 6 19 16 33 10 14 16
18 13 9 -4 -13 -1 -16 16 -11 12 2 31 12 41 21 18 15 18 15 7 -7 -7 -13 -10
-26 -7 -30 3 -3 6 0 6 7 0 7 5 9 10 6 6 -4 9 -1 8 6 -2 6 3 14 11 17 8 3 11 0
7 -7 -4 -6 -3 -11 2 -11 17 0 22 13 10 27 -8 11 -7 12 6 7 9 -3 16 -13 16 -21
0 -8 5 -11 10 -8 6 4 7 11 4 17 -4 7 -2 8 4 4 7 -4 12 -2 12 5 0 7 3 10 6 7 3
-4 0 -16 -6 -28 -11 -21 -11 -21 15 -4 20 13 25 14 23 3 -2 -8 2 -13 9 -12 8
2 10 -4 6 -14 -5 -12 -3 -14 7 -8 8 5 11 4 7 -3 -4 -5 -15 -9 -25 -7 -9 1 -11
0 -4 -2 6 -3 12 -9 12 -14 0 -6 6 -7 13 -3 8 5 8 2 -2 -9 -15 -19 -8 -22 19
-7 16 8 18 8 14 -5 -3 -8 -10 -12 -15 -9 -5 3 -9 1 -9 -4 0 -5 12 -14 26 -20
15 -7 22 -17 18 -24 -4 -7 -3 -8 5 -4 6 4 9 11 6 16 -3 4 2 7 11 6 8 -1 20 -9
25 -17 7 -12 9 -11 9 3 0 9 5 20 10 23 7 4 9 -3 5 -22 -3 -15 -2 -22 1 -15 3
6 10 10 14 7 5 -3 12 0 16 6 4 7 3 9 -3 6 -5 -3 -10 0 -10 8 0 12 4 12 28 0
26 -14 27 -13 22 6 -5 20 -4 20 18 9 20 -10 22 -10 12 1 -19 20 -16 28 10 22
22 -5 22 -5 2 11 -11 10 -15 15 -8 12 16 -8 22 14 12 42 -6 15 -5 21 1 17 6
-3 10 -13 10 -21 0 -8 6 -14 13 -14 8 0 7 -3 -3 -10 -13 -8 -13 -11 -1 -22 9
-8 11 -9 7 -1 -3 6 -2 14 4 18 6 4 7 12 3 18 -4 7 -8 19 -10 27 -1 10 3 9 14
-5 14 -18 15 -18 9 -1 -5 14 -2 17 9 12 9 -3 13 -2 10 4 -3 6 -12 10 -20 10
-8 0 -17 5 -21 12 -5 7 -3 8 6 3 10 -6 12 -3 8 12 -3 12 0 20 8 20 7 0 10 -5
7 -11 -3 -6 -3 -8 1 -4 4 3 6 8 4 11 -1 2 4 12 12 23 13 17 13 18 0 7 -13 -10
-18 -8 -30 10 -12 20 -12 21 4 8 15 -13 16 -11 11 17 -3 18 -1 32 4 32 6 0 8
-9 6 -20 -2 -11 1 -23 7 -26 7 -4 8 -2 4 4 -4 7 -1 12 6 12 9 0 9 3 -2 10 -13
8 -13 10 -1 10 11 0 10 4 -5 16 -10 8 -14 13 -7 10 6 -4 15 -1 19 5 4 8 3 9
-4 5 -7 -4 -12 -1 -12 9 0 9 5 13 10 10 22 -14 8 11 -17 29 -14 11 -23 13 -18
6 6 -10 4 -12 -9 -7 -10 4 -15 3 -11 -3 3 -6 1 -10 -4 -10 -6 0 -11 5 -11 11
0 7 -9 0 -20 -14 -11 -14 -20 -30 -20 -35 0 -6 -5 -14 -12 -18 -7 -5 -9 -2 -6
8 4 8 0 15 -8 15 -7 0 -10 -5 -7 -10 4 -7 -1 -8 -12 -3 -15 5 -16 4 -5 -9 7
-9 10 -18 6 -22 -3 -3 -6 -1 -6 5 0 7 -5 12 -11 12 -5 0 -8 -4 -4 -9 3 -5 0
-13 -6 -17 -7 -4 -9 -3 -5 4 3 6 2 13 -3 16 -10 6 -26 -23 -22 -39 2 -5 -1 -6
-6 -2 -4 5 -9 13 -9 18 -1 5 -2 12 -3 17 -1 4 -10 -4 -21 -18 -11 -14 -19 -18
-18 -10 2 8 7 18 13 22 5 4 0 6 -13 5 -17 -1 -21 -6 -17 -22 3 -11 2 -14 -1
-7 -3 6 -11 9 -17 5 -6 -4 -8 0 -4 10 3 9 1 19 -5 23 -6 4 -8 3 -5 -3 4 -6 -4
-10 -18 -10 -15 0 -22 4 -18 11 3 6 0 6 -8 -1 -7 -7 -21 -13 -30 -13 -10 0
-20 -6 -23 -12 -3 -7 -3 -1 -1 14 2 15 -1 30 -6 34 -5 3 -9 2 -8 -3 4 -24 -3
-42 -18 -48 -15 -5 -16 -4 -5 6 16 17 15 29 -3 29 -8 0 -15 5 -15 12 0 6 -3 8
-6 5 -4 -4 -2 -13 4 -20 9 -10 8 -14 -3 -14 -8 0 -12 4 -9 9 5 8 -9 12 -33 9
-7 -1 -13 3 -13 8 0 6 -8 8 -17 5 -15 -5 -16 -4 -3 5 14 10 7 16 -14 12 -5 -1
-4 5 4 13 7 10 8 16 2 16 -6 0 -14 -4 -17 -10 -3 -5 -12 -10 -18 -10 -7 0 -6
4 3 10 13 8 12 10 -3 10 -10 0 -15 5 -12 10 3 6 2 10 -4 10 -5 0 -12 -6 -15
-12 -3 -7 -3 -2 0 11 4 16 3 21 -5 17 -6 -4 -11 0 -11 8 0 9 -7 16 -15 16 -8
0 -15 5 -15 11 0 5 5 7 11 4 6 -4 5 2 -3 14 -7 12 -17 21 -22 21 -4 0 -4 -6 2
-13 7 -8 8 -18 1 -27 -8 -12 -9 -11 -7 5 2 11 -2 19 -7 18 -6 -1 -11 7 -12 17
-1 13 3 17 14 13 11 -4 14 -2 9 5 -9 16 -33 15 -39 0 -4 -10 -6 -10 -6 -1 -1
6 8 18 20 26 20 14 20 15 -10 25 -16 6 -33 7 -37 4 -4 -4 -4 -1 0 6 4 7 12 10
17 7 5 -4 9 -2 9 3 0 6 -6 12 -14 15 -15 6 -16 54 -1 77 8 13 7 13 -8 1 -9 -7
-15 -17 -12 -20 2 -4 -2 -8 -10 -8 -11 0 -12 4 -4 14 8 9 8 17 1 26 -11 13 9
52 21 40 4 -3 7 -1 7 5 0 15 -13 15 -27 1 -8 -8 -13 -7 -18 2 -5 8 -4 10 3 5
16 -10 15 16 0 33 -7 8 0 5 16 -5 l29 -19 -19 30 c-10 16 -14 26 -7 22 6 -4
15 -2 19 4 4 8 3 9 -4 5 -7 -4 -12 -2 -12 4 0 6 -4 9 -8 6 -4 -2 -8 4 -8 15 0
23 0 23 21 3 14 -15 15 -14 11 12 -3 16 -14 35 -23 43 -16 12 -16 12 5 6 21
-6 23 -5 13 13 -14 26 -14 43 0 19 6 -9 15 -15 20 -11 6 3 5 12 -3 22 -11 13
-10 15 5 9 10 -4 16 -3 12 2 -3 5 1 12 7 15 7 3 1 3 -13 0 -15 -3 -30 -1 -33
5 -5 7 -1 8 10 4 11 -4 15 -3 11 4 -5 7 0 9 13 6 11 -3 20 0 20 6 0 6 -6 11
-14 11 -8 0 -18 4 -21 10 -4 6 1 7 11 3 11 -4 15 -2 11 4 -4 6 1 17 11 24 15
12 16 12 4 -2 -10 -13 -10 -18 0 -27 10 -8 14 -2 16 24 1 22 -2 33 -8 29 -5
-3 -10 -2 -10 4 0 5 14 8 30 6 17 -2 28 0 25 5 -3 4 7 15 20 24 15 10 23 22
19 28 -5 7 -2 9 8 5 12 -4 14 -1 11 14 -3 11 0 19 6 19 7 0 9 -5 5 -12 -6 -10
-5 -10 8 -1 8 7 19 9 23 5 5 -4 5 -1 1 6 -4 7 -11 10 -16 7 -5 -3 -12 0 -16 6
-4 8 -3 9 4 5 7 -4 12 -2 12 4 0 7 7 5 16 -4 8 -9 20 -16 27 -16 6 0 3 6 -8
13 -14 11 -15 16 -5 22 9 6 11 4 5 -5 -6 -9 -4 -11 4 -6 7 5 10 15 7 25 -5 14
-4 13 8 -1 16 -22 30 -23 22 -2 -4 10 -2 13 6 8 8 -5 9 -1 5 12 -7 18 -7 18 8
0 14 -19 20 -12 16 19 -1 6 8 -1 20 -15 22 -24 22 -24 16 -2 -6 26 1 28 20 5
14 -17 14 -17 9 -1 -3 10 0 20 6 24 7 4 8 3 4 -4 -4 -7 -2 -12 4 -12 6 0 8 -5
4 -12 -4 -6 -3 -8 4 -5 5 4 8 17 6 30 l-5 22 13 -23 12 -23 12 23 c8 13 13 17
14 11 0 -7 5 -13 11 -13 5 0 7 5 3 12 -4 6 -3 8 4 4 6 -3 13 -2 17 4 12 19 16
10 5 -11z m60 5 c0 -8 -19 -13 -24 -6 -3 5 1 9 9 9 8 0 15 -2 15 -3z m864 -30
c3 -8 2 -12 -4 -9 -6 3 -10 10 -10 16 0 14 7 11 14 -7z m-594 -14 c0 -5 -2
-10 -4 -10 -3 0 -8 5 -11 10 -3 6 -1 10 4 10 6 0 11 -4 11 -10z m605 -20 c3
-5 -1 -10 -10 -10 -9 0 -13 5 -10 10 3 6 8 10 10 10 2 0 7 -4 10 -10z m-461
-65 c-4 -8 -11 -12 -16 -9 -6 4 -5 10 3 15 19 12 19 11 13 -6z m-829 -5 c-3
-5 -1 -10 5 -10 6 0 8 -5 4 -11 -4 -8 -9 -7 -15 2 -7 12 -3 29 7 29 3 0 2 -4
-1 -10z m-29 -48 c-17 -16 -18 -16 -5 5 7 12 15 20 18 17 3 -2 -3 -12 -13 -22z
m1314 -3 c0 -5 -4 -9 -8 -9 -5 0 -9 7 -9 15 0 8 4 12 9 9 4 -3 8 -9 8 -15z
m-385 -27 c-3 -3 -11 0 -18 7 -9 10 -8 11 6 5 10 -3 15 -9 12 -12z m765 -57
c0 -1 -9 -5 -19 -8 -13 -3 -18 -1 -14 9 4 10 33 10 33 -1z m-383 -62 c0 -9 -4
-10 -14 -2 -7 6 -13 12 -13 14 0 1 6 2 13 2 8 0 14 -6 14 -14z m1100 -43 c1
-11 -2 -20 -7 -20 -6 0 -7 17 -1 38 3 8 7 -1 8 -18z m-1090 -76 c-3 -3 -12 -4
-19 -1 -8 3 -5 6 6 6 11 1 17 -2 13 -5z m1048 -32 c-3 -3 -11 0 -18 7 -9 10
-8 11 6 5 10 -3 15 -9 12 -12z m-1313 1 c-6 -2 -9 -10 -6 -15 4 -7 2 -8 -5 -4
-13 9 -5 26 12 25 9 0 8 -2 -1 -6z m253 -11 c-3 -3 -11 0 -18 7 -9 10 -8 11 6
5 10 -3 15 -9 12 -12z m655 3 c0 -12 -19 -12 -23 0 -4 9 -1 12 9 8 7 -3 14 -7
14 -8z m-270 -20 c0 -1 -9 -5 -19 -8 -13 -3 -18 -1 -14 9 4 10 33 10 33 -1z
m165 -95 c3 -6 -1 -7 -9 -4 -18 7 -21 14 -7 14 6 0 13 -4 16 -10z m-538 -6
c-3 -3 -12 -4 -19 -1 -8 3 -5 6 6 6 11 1 17 -2 13 -5z m-247 -14 c0 -5 -2 -10
-4 -10 -3 0 -8 5 -11 10 -3 6 -1 10 4 10 6 0 11 -4 11 -10z m235 -28 c-3 -3
-11 0 -18 7 -9 10 -8 11 6 5 10 -3 15 -9 12 -12z m371 -37 c1 -8 -1 -17 -5
-19 -4 -3 -7 6 -7 19 0 25 8 25 12 0z m-1726 -39 c0 -2 -9 -6 -20 -9 -11 -3
-18 -1 -14 4 5 9 34 13 34 5z m1367 -42 c-3 -3 -12 -4 -19 -1 -8 3 -5 6 6 6
11 1 17 -2 13 -5z m378 -24 c3 -5 2 -10 -4 -10 -5 0 -13 5 -16 10 -3 6 -2 10
4 10 5 0 13 -4 16 -10z m-612 -15 c-3 -9 -8 -14 -10 -11 -3 3 -2 9 2 15 9 16
15 13 8 -4z m222 -3 c-3 -3 -11 0 -18 7 -9 10 -8 11 6 5 10 -3 15 -9 12 -12z
m-662 -97 c-7 -21 -12 -19 -10 4 0 11 5 18 9 15 4 -3 5 -11 1 -19z m-55 -15
c-9 -13 -14 -16 -20 -7 -8 13 10 39 23 31 5 -3 3 -14 -3 -24z m729 -6 c-3 -3
-12 -4 -19 -1 -8 3 -5 6 6 6 11 1 17 -2 13 -5z m-12 -42 c-3 -3 -11 0 -18 7
-9 10 -8 11 6 5 10 -3 15 -9 12 -12z m-1010 -12 c-3 -5 -12 -10 -18 -10 -7 0
-6 4 3 10 19 12 23 12 15 0z m41 -2 c4 -7 3 -8 -4 -4 -7 4 -12 2 -12 -5 0 -7
-3 -10 -6 -6 -6 5 3 27 11 27 2 0 7 -5 11 -12z m707 -83 c-3 -9 -8 -14 -10
-11 -3 3 -2 9 2 15 9 16 15 13 8 -4z m647 -69 c0 -2 -7 -7 -16 -10 -8 -3 -12
-2 -9 4 6 10 25 14 25 6z m-1167 -61 c-3 -9 -8 -14 -10 -11 -3 3 -2 9 2 15 9
16 15 13 8 -4z m-103 -10 c0 -7 -30 -13 -34 -7 -3 4 4 9 15 9 10 1 19 0 19 -2z
m505 -75 c3 -5 1 -10 -4 -10 -6 0 -11 5 -11 10 0 6 2 10 4 10 3 0 8 -4 11 -10z
m749 -19 c3 -5 -1 -11 -9 -14 -9 -4 -12 -1 -8 9 6 16 10 17 17 5z m306 -16 c7
-8 9 -15 6 -15 -4 0 -14 7 -22 15 -9 8 -11 15 -6 15 5 0 15 -7 22 -15z m-416
-138 c4 4 4 -1 0 -10 -3 -10 -7 -17 -8 -15 -1 2 -8 12 -16 23 -14 18 -13 19 1
8 9 -7 19 -10 23 -6z m841 -15 c-3 -3 -11 0 -18 7 -9 10 -8 11 6 5 10 -3 15
-9 12 -12z m-2055 -8 c0 -8 -5 -12 -10 -9 -6 4 -8 11 -5 16 9 14 15 11 15 -7z
m97 -8 c0 -8 -6 -12 -15 -9 -11 5 -11 7 0 14 7 5 13 9 14 9 0 0 1 -6 1 -14z"/>
<path d="M1855 2390 c-3 -6 -10 -8 -14 -6 -4 3 -8 -2 -8 -10 0 -10 4 -11 11
-4 12 12 29 14 22 2 -3 -5 1 -9 8 -9 16 0 14 29 -1 34 -6 2 -14 -1 -18 -7z"/>
<path d="M1670 2369 c0 -5 5 -7 10 -4 6 3 10 8 10 11 0 2 -4 4 -10 4 -5 0 -10
-5 -10 -11z"/>
<path d="M1880 2330 c6 -11 13 -20 16 -20 2 0 0 9 -6 20 -6 11 -13 20 -16 20
-2 0 0 -9 6 -20z"/>
<path d="M1540 2213 c0 -14 15 -28 30 -31 11 -2 10 1 -3 12 -14 10 -15 15 -5
19 8 4 7 6 -4 6 -10 1 -18 -2 -18 -6z"/>
<path d="M1540 2096 c0 -2 7 -7 16 -10 8 -3 12 -2 9 4 -6 10 -25 14 -25 6z"/>
<path d="M2550 1970 c0 -5 5 -10 11 -10 5 0 7 5 4 10 -3 6 -8 10 -11 10 -2 0
-4 -4 -4 -10z"/>
<path d="M1545 1951 c-6 -11 9 -23 19 -14 9 9 7 23 -3 23 -6 0 -12 -4 -16 -9z"/>
<path d="M1545 1791 c-6 -11 9 -23 19 -14 9 9 7 23 -3 23 -6 0 -12 -4 -16 -9z"/>
<path d="M2465 1740 c-3 -6 1 -7 9 -4 18 7 21 14 7 14 -6 0 -13 -4 -16 -10z"/>
<path d="M2045 1659 c-4 -6 -5 -12 -2 -15 2 -3 7 2 10 11 7 17 1 20 -8 4z"/>
<path d="M1545 1631 c-6 -11 9 -23 19 -14 9 9 7 23 -3 23 -6 0 -12 -4 -16 -9z"/>
<path d="M2320 1550 c-9 -6 -10 -10 -3 -10 6 0 15 5 18 10 8 12 4 12 -15 0z"/>
<path d="M2290 1503 c5 -2 8 -9 4 -14 -3 -5 0 -9 6 -9 15 0 7 23 -8 26 -7 1
-8 0 -2 -3z"/>
<path d="M1545 1471 c-6 -11 9 -23 19 -14 9 9 7 23 -3 23 -6 0 -12 -4 -16 -9z"/>
<path d="M2330 1420 c-8 -5 -12 -12 -9 -15 4 -3 12 1 19 10 14 17 11 19 -10 5z"/>
<path d="M2385 1339 c-4 -6 -5 -12 -2 -15 2 -3 7 2 10 11 7 17 1 20 -8 4z"/>
<path d="M1965 1331 c-6 -11 9 -23 19 -14 9 9 7 23 -3 23 -6 0 -12 -4 -16 -9z"/>
<path d="M1540 1296 c0 -2 7 -7 16 -10 8 -3 12 -2 9 4 -6 10 -25 14 -25 6z"/>
<path d="M2413 1277 c0 -8 6 -14 14 -14 9 0 10 4 2 14 -6 7 -12 13 -14 13 -1
0 -2 -6 -2 -13z"/>
<path d="M1557 1119 c7 -7 15 -10 18 -7 3 3 -2 9 -12 12 -14 6 -15 5 -6 -5z"/>
<path d="M1545 1031 c-3 -5 -1 -12 5 -16 6 -4 7 -11 4 -17 -4 -7 -2 -8 5 -4 9
6 9 11 -1 24 -11 13 -10 15 5 9 11 -4 16 -3 12 3 -8 13 -22 13 -30 1z"/>
<path d="M2630 966 c0 -2 7 -7 16 -10 8 -3 12 -2 9 4 -6 10 -25 14 -25 6z"/>
<path d="M1553 945 c0 -8 4 -12 9 -9 5 3 6 10 3 15 -9 13 -12 11 -12 -6z"/>
<path d="M1561 903 c6 -7 17 -13 23 -12 7 0 6 2 -2 6 -6 2 -10 8 -8 12 3 4 -1
8 -9 8 -11 0 -12 -4 -4 -14z"/>
<path d="M2661 911 c-8 -5 -21 -7 -30 -3 -9 3 -13 2 -9 -2 12 -14 55 -13 55 1
0 7 -1 13 -1 13 -1 0 -7 -4 -15 -9z"/>
<path d="M1605 891 c-2 -4 12 -7 30 -7 19 0 32 3 29 5 -7 8 -54 9 -59 2z"/>
<path d="M1740 891 c0 -6 4 -13 10 -16 6 -3 7 1 4 9 -7 18 -14 21 -14 7z"/>
<path d="M1826 892 c-2 -4 4 -8 14 -8 10 0 16 4 14 8 -3 4 -9 8 -14 8 -5 0
-11 -4 -14 -8z"/>
<path d="M2445 891 c-6 -11 9 -23 19 -14 9 9 7 23 -3 23 -6 0 -12 -4 -16 -9z"/>
<path d="M570 2310 c0 -5 5 -10 11 -10 5 0 7 5 4 10 -3 6 -8 10 -11 10 -2 0
-4 -4 -4 -10z"/>
<path d="M756 2312 c-3 -4 4 -9 15 -9 23 -2 25 3 4 10 -8 4 -16 3 -19 -1z"/>
<path d="M831 2304 c0 -11 3 -14 6 -6 3 7 2 16 -1 19 -3 4 -6 -2 -5 -13z"/>
<path d="M451 2284 c0 -11 3 -14 6 -6 3 7 2 16 -1 19 -3 4 -6 -2 -5 -13z"/>
<path d="M866 2292 c-3 -5 1 -9 9 -9 8 0 15 4 15 9 0 4 -4 8 -9 8 -6 0 -12 -4
-15 -8z"/>
<path d="M226 2108 c3 -5 10 -6 15 -3 13 9 11 12 -6 12 -8 0 -12 -4 -9 -9z"/>
<path d="M646 2083 c-13 -25 -22 -19 -17 10 1 5 -3 6 -8 3 -10 -7 -9 -25 2
-43 5 -8 4 -13 -2 -13 -6 0 -11 5 -11 11 0 6 -7 8 -16 5 -8 -3 -12 -2 -9 3 3
5 1 12 -4 15 -5 3 -8 -10 -7 -30 1 -20 -3 -38 -8 -41 -5 -4 -6 -2 -3 3 3 6 2
16 -4 24 -7 12 -9 10 -10 -7 -2 -39 -4 -43 -12 -44 -5 0 -12 3 -15 7 -4 4 -2
4 4 1 6 -3 11 0 11 8 0 11 -4 12 -13 4 -7 -6 -10 -18 -7 -26 5 -12 3 -14 -7
-8 -8 5 -11 4 -6 -3 3 -5 1 -12 -6 -14 -7 -3 -5 -7 6 -11 11 -5 15 -3 10 5 -4
7 -3 8 4 4 19 -11 14 -29 -6 -24 -15 4 -18 -1 -17 -26 0 -20 5 -30 14 -28 7 1
9 -2 6 -8 -4 -6 -13 -9 -21 -6 -24 9 -15 -3 14 -18 15 -8 21 -15 14 -16 -7 0
-11 -4 -7 -9 3 -5 1 -12 -4 -16 -6 -3 -8 3 -6 15 2 11 0 20 -5 20 -12 0 -20
-29 -9 -35 5 -4 6 -11 3 -17 -4 -7 -2 -8 4 -4 7 4 12 1 12 -9 0 -9 -4 -13 -10
-10 -5 3 -10 1 -10 -4 0 -15 13 -14 29 2 11 10 11 8 2 -10 -9 -17 -8 -25 4
-37 17 -16 20 -30 6 -21 -5 3 -13 0 -17 -6 -4 -8 -3 -9 4 -5 11 7 17 -7 12
-29 -1 -5 8 -1 19 9 12 11 24 16 28 13 3 -4 1 -7 -7 -7 -9 0 -9 -4 -3 -12 6
-7 9 -22 7 -32 -2 -17 -1 -18 13 -3 15 14 17 14 32 -4 14 -17 19 -18 42 -6 21
12 26 12 26 1 0 -7 -3 -11 -7 -9 -3 2 -12 0 -19 -5 -9 -5 -2 -7 18 -6 21 0 30
5 26 14 -3 9 0 10 15 2 24 -13 30 -13 30 1 0 5 -4 8 -9 5 -5 -3 -14 1 -21 9
-9 10 -9 15 -1 15 6 0 11 -5 11 -12 0 -6 3 -8 7 -5 3 4 14 0 23 -8 16 -14 17
-14 12 11 -3 19 -1 25 7 20 6 -4 14 0 17 9 6 14 7 14 18 -1 11 -14 13 -14 25
-1 9 12 9 17 0 23 -8 5 -9 3 -4 -6 5 -9 4 -11 -3 -6 -19 11 4 46 27 41 15 -3
19 1 15 18 -2 12 -8 23 -14 25 -5 2 -10 9 -10 15 0 6 12 0 27 -14 15 -13 22
-17 15 -8 -6 9 -9 19 -5 22 3 4 2 7 -4 7 -6 0 -13 7 -17 15 -4 12 -2 13 13 6
16 -9 17 -7 13 16 -4 20 -2 24 9 18 12 -7 11 -6 0 9 -13 15 -13 19 0 27 8 5 9
9 4 9 -6 0 -16 -5 -23 -12 -8 -8 -12 -8 -12 -1 0 15 25 34 35 25 5 -4 5 -2 1
5 -3 6 -15 10 -26 8 -13 -2 -17 1 -14 10 3 8 13 11 22 8 13 -4 12 -1 -3 10
l-20 16 20 16 c11 9 15 14 8 11 -15 -8 -44 4 -37 15 3 5 0 9 -5 9 -6 0 -11 -5
-11 -12 0 -6 -2 -9 -5 -6 -9 8 6 38 16 32 5 -3 6 1 3 9 -2 7 -10 14 -17 15
-33 3 -52 11 -49 21 1 6 3 16 5 22 1 6 -5 14 -13 16 -12 3 -12 2 -2 -5 10 -7
9 -12 -4 -23 -12 -9 -15 -10 -10 -1 4 7 2 12 -4 12 -6 0 -8 5 -4 12 5 7 3 8
-7 2 -19 -12 -31 -12 -54 0 -11 6 -24 9 -29 8 -5 -2 -6 4 -3 13 10 25 -1 17
-17 -12z m38 -19 c3 -8 2 -12 -4 -9 -6 3 -10 10 -10 16 0 14 7 11 14 -7z m146
-64 c0 -5 -5 -10 -11 -10 -5 0 -7 5 -4 10 3 6 8 10 11 10 2 0 4 -4 4 -10z m33
-65 c-3 -9 -8 -14 -10 -11 -3 3 -2 9 2 15 9 16 15 13 8 -4z m-344 -38 c8 -10
7 -14 -2 -14 -8 0 -14 6 -14 14 0 7 1 13 2 13 2 0 8 -6 14 -13z m18 -172 c0
-8 -4 -12 -9 -9 -5 3 -6 10 -3 15 9 13 12 11 12 -6z m328 -5 c3 -5 1 -10 -4
-10 -6 0 -11 5 -11 10 0 6 2 10 4 10 3 0 8 -4 11 -10z"/>
<path d="M695 2101 c-3 -5 0 -13 7 -18 16 -10 42 -14 33 -5 -4 4 -12 7 -18 7
-7 1 -11 6 -9 13 2 14 -4 16 -13 3z"/>
<path d="M1170 2080 c0 -5 5 -10 11 -10 5 0 7 5 4 10 -3 6 -8 10 -11 10 -2 0
-4 -4 -4 -10z"/>
<path d="M801 2047 c-8 -10 -7 -14 2 -14 8 0 14 6 14 14 0 7 -1 13 -2 13 -2 0
-8 -6 -14 -13z"/>
<path d="M1189 2047 c6 -8 7 -18 3 -22 -4 -5 -1 -5 6 -1 8 5 12 0 12 -13 0
-12 4 -21 9 -21 14 0 7 33 -11 52 -21 21 -36 24 -19 5z"/>
<path d="M1227 1968 c6 -7 9 -20 8 -29 -2 -9 3 -16 10 -16 7 0 12 5 10 11 -5
25 -18 46 -27 46 -7 0 -7 -4 -1 -12z"/>
<path d="M125 1760 c-8 -13 9 -20 24 -11 10 6 9 10 -3 14 -8 3 -18 2 -21 -3z"/>
<path d="M493 1705 c0 -8 4 -12 9 -9 5 3 6 10 3 15 -9 13 -12 11 -12 -6z"/>
<path d="M1282 1660 c7 -11 16 -20 20 -20 15 0 8 15 -12 28 -19 12 -20 11 -8
-8z"/>
<path d="M791 1626 c-8 -10 -9 -16 -1 -21 5 -3 10 -5 11 -3 4 18 7 38 4 38 -1
0 -8 -6 -14 -14z"/>
<path d="M1286 1617 c3 -10 9 -15 12 -12 3 3 0 11 -7 18 -10 9 -11 8 -5 -6z"/>
<path d="M595 1591 c-3 -5 -2 -12 3 -15 5 -3 9 1 9 9 0 17 -3 19 -12 6z"/>
<path d="M1279 1468 c-5 -18 -6 -38 -1 -34 7 8 12 36 6 36 -2 0 -4 -1 -5 -2z"/>
<path d="M370 1412 c6 -13 14 -21 18 -18 3 4 -2 14 -12 24 -18 16 -18 16 -6
-6z"/>
<path d="M1266 1408 c3 -5 10 -6 15 -3 13 9 11 12 -6 12 -8 0 -12 -4 -9 -9z"/>
<path d="M676 1375 c4 -8 8 -15 10 -15 2 0 4 7 4 15 0 8 -4 15 -10 15 -5 0 -7
-7 -4 -15z"/>
<path d="M535 1210 c-3 -5 1 -10 10 -10 9 0 13 5 10 10 -3 6 -8 10 -10 10 -2
0 -7 -4 -10 -10z"/>
<path d="M190 1186 c0 -2 8 -10 18 -17 15 -13 16 -12 3 4 -13 16 -21 21 -21
13z"/>
<path d="M175 1160 c-3 -5 -1 -10 4 -10 6 0 11 5 11 10 0 6 -2 10 -4 10 -3 0
-8 -4 -11 -10z"/>
<path d="M198 1103 c7 -3 16 -2 19 1 4 3 -2 6 -13 5 -11 0 -14 -3 -6 -6z"/>
<path d="M234 1044 c-18 -14 -18 -15 4 -4 12 6 22 13 22 15 0 8 -5 6 -26 -11z"/>
<path d="M1016 962 c-2 -4 -1 -14 3 -21 6 -9 11 -10 15 -2 4 6 2 11 -4 11 -6
0 -8 5 -5 10 3 6 4 10 1 10 -3 0 -7 -4 -10 -8z"/>
<path d="M380 930 c0 -5 5 -10 11 -10 5 0 7 5 4 10 -3 6 -8 10 -11 10 -2 0 -4
-4 -4 -10z"/>
<path d="M897 904 c4 -12 3 -15 -5 -10 -8 5 -10 2 -6 -8 3 -9 10 -13 15 -10
12 7 11 31 -1 39 -6 4 -7 -1 -3 -11z"/>
<path d="M852 887 c-8 -10 -6 -13 7 -13 11 0 17 6 14 13 -3 7 -6 13 -8 13 -1
0 -7 -6 -13 -13z"/>
<path d="M788 883 c6 -2 9 -10 6 -15 -4 -7 -2 -8 4 -4 18 11 14 26 -5 25 -11
0 -13 -3 -5 -6z"/>
<path d="M730 876 c0 -2 7 -7 16 -10 8 -3 12 -2 9 4 -6 10 -25 14 -25 6z"/>
</g>
</svg>
